<?xml version="1.0" encoding="UTF-8" standalone="no"?>
<svg
   xmlns:dc="http://purl.org/dc/elements/1.1/"
   xmlns:cc="http://creativecommons.org/ns#"
   xmlns:rdf="http://www.w3.org/1999/02/22-rdf-syntax-ns#"
   xmlns:svg="http://www.w3.org/2000/svg"
   xmlns="http://www.w3.org/2000/svg"
   xmlns:sodipodi="http://sodipodi.sourceforge.net/DTD/sodipodi-0.dtd"
   xmlns:inkscape="http://www.inkscape.org/namespaces/inkscape"
   width="10.17321mm"
   height="10.17327mm"
   viewBox="0 0 10.17321 10.17327"
   version="1.1"
   id="svg90"
   inkscape:version="1.0.1 (0767f8302a, 2020-10-17)"
   sodipodi:docname="cog2.svg">
  <defs
     id="defs84" />
  <sodipodi:namedview
     id="base"
     pagecolor="#ffffff"
     bordercolor="#666666"
     borderopacity="1.0"
     inkscape:pageopacity="0.0"
     inkscape:pageshadow="2"
     inkscape:zoom="0.35"
     inkscape:cx="14.597493"
     inkscape:cy="23.660699"
     inkscape:document-units="mm"
     inkscape:current-layer="layer1"
     inkscape:document-rotation="0"
     showgrid="false"
     inkscape:window-width="1439"
     inkscape:window-height="1023"
     inkscape:window-x="117"
     inkscape:window-y="27"
     inkscape:window-maximized="0" />
  <metadata
     id="metadata87">
    <rdf:RDF>
      <cc:Work
         rdf:about="">
        <dc:format>image/svg+xml</dc:format>
        <dc:type
           rdf:resource="http://purl.org/dc/dcmitype/StillImage" />
        <dc:title></dc:title>
      </cc:Work>
    </rdf:RDF>
  </metadata>
  <g
     inkscape:label="Layer 1"
     inkscape:groupmode="layer"
     id="layer1"
     transform="translate(-101.97108,-141.90644)">
    <path
       style="fill:#000000;stroke-width:0.0264911"
       d="m 106.55346,151.65 c -0.0627,-0.23677 -0.11734,-0.43479 -0.12144,-0.44006 -0.004,-0.005 -0.0857,-0.0243 -0.18133,-0.0422 l -0.17388,-0.0327 -0.25641,0.3469 c -0.14102,0.19079 -0.26383,0.35597 -0.27292,0.36706 -0.0138,0.0168 -0.74953,-0.27073 -0.78602,-0.30722 -0.007,-0.007 0.0127,-0.19381 0.0427,-0.41619 0.03,-0.22238 0.0545,-0.42432 0.0545,-0.44875 0,-0.0441 -0.2302,-0.2123 -0.29057,-0.2123 -0.0173,0 -0.20417,0.10335 -0.41521,0.22968 l -0.3837,0.22968 -0.28973,-0.28883 c -0.15935,-0.15886 -0.28973,-0.30004 -0.28973,-0.31373 0,-0.0137 0.10133,-0.19671 0.22517,-0.40671 0.12385,-0.20999 0.22518,-0.38652 0.22518,-0.39228 0,-0.0256 -0.18906,-0.30282 -0.20612,-0.30221 -0.0105,2.6e-4 -0.21543,0.0295 -0.45544,0.0647 -0.24001,0.0352 -0.44045,0.06 -0.44543,0.055 -0.0259,-0.0259 -0.32192,-0.76378 -0.31236,-0.77857 0.006,-0.01 0.17286,-0.1366 0.37041,-0.2823 l 0.35918,-0.26492 -0.0164,-0.11921 c -0.0315,-0.22961 -0.0129,-0.21712 -0.50989,-0.34295 l -0.45294,-0.1147 v -0.41815 -0.41815 l 0.0861,-0.0274 c 0.0474,-0.0151 0.21127,-0.0584 0.36425,-0.0962 0.15299,-0.0379 0.32196,-0.0803 0.3755,-0.0944 0.10162,-0.0266 0.10128,-0.026 0.14242,-0.26585 l 0.0164,-0.0956 -0.37313,-0.2745 c -0.20521,-0.15098 -0.37312,-0.28606 -0.37312,-0.3002 0,-0.0141 0.0678,-0.19031 0.15059,-0.39152 0.17513,-0.42547 0.10645,-0.39206 0.64415,-0.31333 0.1967,0.0288 0.38158,0.0526 0.41085,0.0529 0.0361,2.7e-4 0.0797,-0.0434 0.13518,-0.13555 l 0.0819,-0.1361 -0.2463,-0.41359 -0.2463,-0.41359 0.29897,-0.30029 0.29897,-0.30029 0.40758,0.24402 0.40757,0.24402 0.13309,-0.0735 c 0.0732,-0.0404 0.14573,-0.0832 0.1612,-0.0952 0.0195,-0.0151 0.01,-0.15699 -0.0324,-0.46628 -0.0333,-0.24455 -0.0608,-0.45726 -0.0612,-0.4727 -6.9e-4,-0.0253 0.70444,-0.32956 0.76368,-0.32956 0.0135,0 0.14807,0.16699 0.29898,0.37109 l 0.27438,0.37109 0.0927,-0.0144 c 0.23754,-0.0368 0.23325,-0.034 0.27471,-0.17994 0.0215,-0.0755 0.0773,-0.28359 0.12413,-0.46243 l 0.0851,-0.32515 0.42528,0.007 0.42528,0.007 0.0963,0.38412 c 0.053,0.21127 0.1042,0.41532 0.11384,0.45345 0.0152,0.0603 0.0388,0.0735 0.18017,0.10133 0.0894,0.0176 0.17121,0.0222 0.18169,0.0101 0.0105,-0.012 0.13466,-0.17345 0.27597,-0.35875 0.14131,-0.18529 0.26536,-0.34178 0.27567,-0.34775 0.0173,-0.01 0.73659,0.28104 0.76516,0.30961 0.007,0.007 -0.0184,0.21806 -0.0563,0.46908 -0.0379,0.25103 -0.0657,0.45878 -0.0616,0.46167 0.12001,0.0859 0.26143,0.1728 0.28136,0.1728 0.0143,0 0.19842,-0.10006 0.4091,-0.22234 l 0.38306,-0.22234 0.29876,0.29961 0.29875,0.29961 -0.23022,0.39038 -0.23023,0.39038 0.094,0.14165 c 0.0517,0.0779 0.10882,0.14115 0.12689,0.14054 0.0181,-5.3e-4 0.22358,-0.0286 0.4567,-0.0621 0.23312,-0.0336 0.42561,-0.0599 0.42776,-0.0585 0.002,0.001 0.0755,0.17725 0.16309,0.39081 l 0.15919,0.3883 -0.36545,0.27896 -0.36546,0.27896 0.0338,0.16202 c 0.0186,0.0891 0.0407,0.16887 0.049,0.17725 0.008,0.008 0.20343,0.0644 0.43346,0.12457 l 0.41824,0.10935 0.007,0.4262 0.007,0.42621 -0.42809,0.10925 c -0.23546,0.0601 -0.43388,0.11504 -0.44094,0.1221 -0.007,0.007 -0.0235,0.07 -0.0365,0.13989 -0.013,0.0699 -0.0297,0.14625 -0.0371,0.16971 -0.01,0.0307 0.0868,0.11793 0.34476,0.31162 0.19703,0.14794 0.35824,0.27577 0.35824,0.28408 0,0.0244 -0.29731,0.73763 -0.31499,0.75559 -0.009,0.009 -0.20689,-0.0115 -0.44001,-0.0455 -0.23312,-0.034 -0.43082,-0.0623 -0.43932,-0.0628 -0.0374,-0.002 -0.21449,0.29289 -0.19946,0.33206 0.009,0.0232 0.10677,0.19802 0.21745,0.38843 l 0.20124,0.34619 -0.30057,0.29815 -0.30057,0.29815 -0.38106,-0.22121 -0.38106,-0.22121 -0.13713,0.0972 -0.13713,0.0972 0.0641,0.43364 c 0.0354,0.23986 0.0539,0.44335 0.0413,0.45537 -0.0484,0.0463 -0.75886,0.32056 -0.77684,0.29989 -0.0104,-0.012 -0.12927,-0.16787 -0.26404,-0.34632 -0.13476,-0.17845 -0.25287,-0.32915 -0.26246,-0.3349 -0.0175,-0.0105 -0.34742,0.0517 -0.36027,0.0679 -0.004,0.005 -0.0391,0.13975 -0.0786,0.30002 -0.0395,0.16027 -0.0898,0.35399 -0.11183,0.43048 l -0.0401,0.13911 h -0.41828 -0.41828 z m 1.02055,-1.27854 c 0.49785,-0.0747 0.97796,-0.25802 1.40403,-0.53605 0.26948,-0.17585 0.78876,-0.71195 0.96298,-0.99416 0.85515,-1.38527 0.65053,-3.13439 -0.49577,-4.23784 -0.49857,-0.47993 -1.00606,-0.74874 -1.69905,-0.89996 -0.3337,-0.0728 -0.9435,-0.0788 -1.2764,-0.0125 -0.68483,0.13641 -1.24678,0.42602 -1.72739,0.89024 -0.65133,0.62912 -0.99999,1.39851 -1.03945,2.29374 -0.0597,1.35415 0.66208,2.57337 1.88739,3.1882 0.58495,0.2935 1.32053,0.40783 1.98366,0.3083 z m -0.90017,-0.41331 c -0.775,-0.11286 -1.48753,-0.5311 -1.95253,-1.1461 -0.13989,-0.18502 -0.46999,-0.79898 -0.44186,-0.82183 0.005,-0.004 0.61762,-0.16954 1.3607,-0.36719 l 1.35105,-0.35935 1.00005,0.99762 c 0.55002,0.54868 1.00004,1.0063 1.00004,1.01692 0,0.0394 -0.39184,0.29565 -0.62255,0.4072 -0.52335,0.25304 -1.14414,0.35293 -1.6949,0.27273 z m 1.62439,-2.00367 -0.99744,-1.00004 0.12728,-0.4636 c 0.07,-0.25498 0.23719,-0.87087 0.37152,-1.36864 l 0.24425,-0.90505 0.097,0.0342 c 0.36009,0.12704 0.83987,0.44746 1.10365,0.73704 0.84811,0.93111 1.03716,2.22793 0.48743,3.34357 -0.11915,0.24181 -0.375,0.62254 -0.41834,0.62254 -0.01,0 -0.46673,-0.45002 -1.01533,-1.00004 z m -4.14701,-0.50333 c -0.0362,-0.17069 -0.0185,-0.82423 0.0279,-1.03251 0.20581,-0.92261 0.76889,-1.64805 1.59757,-2.05818 0.39957,-0.19776 0.86361,-0.30655 1.30718,-0.30645 0.16224,2e-5 0.52712,0.0406 0.54665,0.0608 0.0113,0.0116 -0.71235,2.68265 -0.7325,2.70383 -0.0194,0.0203 -2.64812,0.73187 -2.70395,0.73187 -0.012,0 -0.0313,-0.0447 -0.0429,-0.0993 z"
       id="path14" />
  </g>
</svg>
